ScaledJumpMotion
version=1
nRows=18
nColumns=24
inDegrees=yes
endheader
time	pelvis_tilt	pelvis_list	pelvis_rotation	pelvis_tx	pelvis_ty	pelvis_tz	hip_flexion_r	hip_adduction_r	hip_rotation_r	knee_angle_r	ankle_angle_r	subtalar_angle_r	mtp_angle_r	hip_flexion_l	hip_adduction_l	hip_rotation_l	knee_angle_l	ankle_angle_l	subtalar_angle_l	mtp_angle_l	lumbar_extension	lumbar_bending	lumbar_rotation
1.67	0.0	0.0	0.0	0.0	0.9031710344827586	0.0	9.301149310344826	0.0	0.0	-18.60229896551724	5.157088275862068	0.0	0.0	9.301149310344826	0.0	0.0	-18.60229896551724	5.157088275862068	0.0	0.0	-6.200766206896551	0.0	0.0
1.68	0.0	0.0	0.0	0.0	0.8976413793103448	0.0	10.055172413793102	0.0	0.0	-20.110344827586204	6.413793103448276	0.0	0.0	10.055172413793102	0.0	0.0	-20.110344827586204	6.413793103448276	0.0	0.0	-6.703448275862069	0.0	0.0
1.69	0.0	0.0	0.0	0.0	0.8922634482758621	0.0	10.788505862068964	0.0	0.0	-21.577011379310342	7.636015172413792	0.0	0.0	10.788505862068964	0.0	0.0	-21.577011379310342	7.636015172413792	0.0	0.0	-7.19233724137931	0.0	0.0
1.7	0.0	0.0	0.0	0.0	0.8870882758620691	0.0	11.49425275862069	0.0	0.0	-22.988505862068966	8.81226068965517	0.0	0.0	11.49425275862069	0.0	0.0	-22.988505862068966	8.81226068965517	0.0	0.0	-7.662835172413792	0.0	0.0
1.71	0.0	0.0	0.0	0.0	0.8821655172413794	0.0	12.165517241379309	0.0	0.0	-24.331034482758618	9.93103448275862	0.0	0.0	12.165517241379309	0.0	0.0	-24.331034482758618	9.93103448275862	0.0	0.0	-8.110344827586205	0.0	0.0
1.72	0.0	0.0	0.0	0.0	0.8775462068965517	0.0	12.795402413793102	0.0	0.0	-25.59080448275862	10.980842758620689	0.0	0.0	12.795402413793102	0.0	0.0	-25.59080448275862	10.980842758620689	0.0	0.0	-8.530268275862067	0.0	0.0
1.73	0.0	0.0	0.0	0.0	0.8732813793103449	0.0	13.377011379310343	0.0	0.0	-26.754023103448276	11.950191724137929	0.0	0.0	13.377011379310343	0.0	0.0	-26.754023103448276	11.950191724137929	0.0	0.0	-8.918007586206896	0.0	0.0
1.74	0.0	0.0	0.0	0.0	0.8694206896551725	0.0	13.903448275862068	0.0	0.0	-27.806896551724137	12.827586206896552	0.0	0.0	13.903448275862068	0.0	0.0	-27.806896551724137	12.827586206896552	0.0	0.0	-9.268965517241378	0.0	0.0
1.75	0.0	0.0	0.0	0.0	0.8660151724137931	0.0	14.36781620689655	0.0	0.0	-28.735632068965515	13.601532413793102	0.0	0.0	14.36781620689655	0.0	0.0	-28.735632068965515	13.601532413793102	0.0	0.0	-9.578544137931035	0.0	0.0
1.76	0.0	0.0	0.0	0.0	0.8631158620689656	0.0	14.763218275862068	0.0	0.0	-29.526436896551722	14.260536551724137	0.0	0.0	14.763218275862068	0.0	0.0	-29.526436896551722	14.260536551724137	0.0	0.0	-9.842145517241377	0.0	0.0
1.77	0.0	0.0	0.0	0.0	0.8607724137931034	0.0	15.082758620689654	0.0	0.0	-30.16551724137931	14.79310344827586	0.0	0.0	15.082758620689654	0.0	0.0	-30.16551724137931	14.79310344827586	0.0	0.0	-10.055172413793102	0.0	0.0
1.78	0.0	0.0	0.0	0.0	0.8590358620689655	0.0	15.319540344827585	0.0	0.0	-30.639080344827587	15.187739310344826	0.0	0.0	15.319540344827585	0.0	0.0	-30.639080344827587	15.187739310344826	0.0	0.0	-10.213026896551723	0.0	0.0
1.79	0.0	0.0	0.0	0.0	0.8579572413793104	0.0	15.466666551724137	0.0	0.0	-30.933333448275857	15.432950344827585	0.0	0.0	15.466666551724137	0.0	0.0	-30.933333448275857	15.432950344827585	0.0	0.0	-10.311111034482757	0.0	0.0
1.8	0.0	0.0	0.0	0.0	0.8575862068965517	0.0	15.517241379310343	0.0	0.0	-31.034482758620687	15.517241379310343	0.0	0.0	15.517241379310343	0.0	0.0	-31.034482758620687	15.517241379310343	0.0	0.0	-10.344827586206895	0.0	0.0
1.81	0.0	0.0	0.0	0.0	0.85763	0.0	15.507831379310343	0.0	0.0	-31.015663103448276	15.507831379310343	0.0	0.0	15.507831379310343	0.0	0.0	-31.015663103448276	15.507831379310343	0.0	0.0	-10.33855448275862	0.0	0.0
1.82	0.0	0.0	0.0	0.0	0.8577600000000001	0.0	15.479963793103446	0.0	0.0	-30.95992758620689	15.479963793103446	0.0	0.0	15.479963793103446	0.0	0.0	-30.95992758620689	15.479963793103446	0.0	0.0	-10.319975862068965	0.0	0.0
1.83	0.0	0.0	0.0	0.0	0.8579737931034483	0.0	15.434181034482757	0.0	0.0	-30.868362413793104	15.434181034482757	0.0	0.0	15.434181034482757	0.0	0.0	-30.868362413793104	15.434181034482757	0.0	0.0	-10.289454137931035	0.0	0.0
1.84	0.0	0.0	0.0	0.0	0.8582686206896553	0.0	15.371026551724137	0.0	0.0	-30.742052758620687	15.371026551724137	0.0	0.0	15.371026551724137	0.0	0.0	-30.742052758620687	15.371026551724137	0.0	0.0	-10.247351034482758	0.0	0.0
